HIERARCHY
ROOT Hips
{
	OFFSET 0.000000 100.481300 0.000000
	CHANNELS 6 Xposition Yposition Zposition Xrotation Yrotation Zrotation 
	JOINT Spine
	{
		OFFSET -0.279200 12.230698 -2.892100
		CHANNELS 3 Xrotation Yrotation Zrotation
		JOINT Spine1
		{
			OFFSET -0.232667 10.192268 -1.242267
			CHANNELS 3 Xrotation Yrotation Zrotation
			JOINT Spine1_split
			{
				OFFSET -0.232667 10.192268 -1.242267
				CHANNELS 3 Xrotation Yrotation Zrotation
				JOINT Spine2
				{
					OFFSET -0.232667 10.192268 -1.242267
					CHANNELS 3 Xrotation Yrotation Zrotation
					JOINT Neck
					{
						OFFSET -0.418800 17.814194 8.416900
						CHANNELS 3 Xrotation Yrotation Zrotation
						JOINT Head
						{
							OFFSET 0.000000 7.031097 3.806800
							CHANNELS 3 Xrotation Yrotation Zrotation
							JOINT HeadTop_End
							{
								OFFSET 0.000000 24.646606 12.978600
								CHANNELS 3 Xrotation Yrotation Zrotation
								End Site
								{
									OFFSET 0.000000 0.000000 0.000000
								}
							}
						}
					}
					JOINT LeftShoulder
					{
						OFFSET 8.476499 7.247704 -3.868750
						CHANNELS 3 Xrotation Yrotation Zrotation
						JOINT LeftShoulder_split
						{
							OFFSET 8.476499 7.247704 -3.868750
							CHANNELS 3 Xrotation Yrotation Zrotation
							JOINT LeftArm
							{
								OFFSET 9.308998 -2.777710 0.208600
								CHANNELS 3 Xrotation Yrotation Zrotation
								JOINT LeftForeArm
								{
									OFFSET 29.972298 0.000000 0.000000
									CHANNELS 3 Xrotation Yrotation Zrotation
									JOINT LeftHand
									{
										OFFSET 26.026505 0.000000 0.000000
										CHANNELS 3 Xrotation Yrotation Zrotation
										JOINT LeftHandThumb1
										{
											OFFSET 12.240501 -7.147949 9.207150
											CHANNELS 3 Xrotation Yrotation Zrotation
											JOINT LeftHandThumb2
											{
												OFFSET 4.138618 -2.389435 2.389433
												CHANNELS 3 Xrotation Yrotation Zrotation
												JOINT LeftHandThumb3
												{
													OFFSET 2.726913 -1.574387 1.574386
													CHANNELS 3 Xrotation Yrotation Zrotation
													JOINT LeftHandThumb4
													{
														OFFSET 3.941010 -2.275345 2.275342
														CHANNELS 3 Xrotation Yrotation Zrotation
														End Site
														{
															OFFSET 0.000000 0.000000 0.000000
														}
													}
												}
											}
										}
										JOINT LeftHandIndex1
										{
											OFFSET 24.424698 -1.985611 5.953459
											CHANNELS 3 Xrotation Yrotation Zrotation
											JOINT LeftHandIndex2
											{
												OFFSET 6.426697 0.000000 0.000000
												CHANNELS 3 Xrotation Yrotation Zrotation
												JOINT LeftHandIndex3
												{
													OFFSET 5.337898 0.000000 0.000000
													CHANNELS 3 Xrotation Yrotation Zrotation
													JOINT LeftHandIndex4
													{
														OFFSET 4.409401 0.000000 0.000000
														CHANNELS 3 Xrotation Yrotation Zrotation
														End Site
														{
															OFFSET 0.000000 0.000000 0.000000
														}
													}
												}
											}
										}
										JOINT LeftHandMiddle1
										{
											OFFSET 23.810104 0.000000 0.000000
											CHANNELS 3 Xrotation Yrotation Zrotation
											JOINT LeftHandMiddle2
											{
												OFFSET 7.176498 0.000000 0.000000
												CHANNELS 3 Xrotation Yrotation Zrotation
												JOINT LeftHandMiddle3
												{
													OFFSET 6.774902 0.000000 0.000000
													CHANNELS 3 Xrotation Yrotation Zrotation
													JOINT LeftHandMiddle4
													{
														OFFSET 5.403328 0.000000 0.000000
														CHANNELS 3 Xrotation Yrotation Zrotation
														End Site
														{
															OFFSET 0.000000 0.000000 0.000000
														}
													}
												}
											}
										}
										JOINT LeftHandRing1
										{
											OFFSET 22.908401 -0.839279 -6.020567
											CHANNELS 3 Xrotation Yrotation Zrotation
											JOINT LeftHandRing2
											{
												OFFSET 6.337502 0.000000 0.000000
												CHANNELS 3 Xrotation Yrotation Zrotation
												JOINT LeftHandRing3
												{
													OFFSET 5.779297 0.000000 0.000000
													CHANNELS 3 Xrotation Yrotation Zrotation
													JOINT LeftHandRing4
													{
														OFFSET 4.965698 0.000000 0.000000
														CHANNELS 3 Xrotation Yrotation Zrotation
														End Site
														{
															OFFSET 0.000000 0.000000 0.000000
														}
													}
												}
											}
										}
										JOINT LeftHandPinky1
										{
											OFFSET 20.037003 -1.530319 -10.950146
											CHANNELS 3 Xrotation Yrotation Zrotation
											JOINT LeftHandPinky2
											{
												OFFSET 5.254700 0.000000 0.000000
												CHANNELS 3 Xrotation Yrotation Zrotation
												JOINT LeftHandPinky3
												{
													OFFSET 4.810204 0.000000 0.000000
													CHANNELS 3 Xrotation Yrotation Zrotation
													JOINT LeftHandPinky4
													{
														OFFSET 3.647202 0.000000 0.000000
														CHANNELS 3 Xrotation Yrotation Zrotation
														End Site
														{
															OFFSET 0.000000 0.000000 0.000000
														}
													}
												}
											}
										}
									}
								}
							}
						}
					}
					JOINT RightShoulder
					{
						OFFSET -7.570500 7.247704 -3.868750
						CHANNELS 3 Xrotation Yrotation Zrotation
						JOINT RightShoulder_split
						{
							OFFSET -7.570500 7.247704 -3.868750
							CHANNELS 3 Xrotation Yrotation Zrotation
							JOINT RightArm
							{
								OFFSET -9.308998 -2.777710 0.208500
								CHANNELS 3 Xrotation Yrotation Zrotation
								JOINT RightForeArm
								{
									OFFSET -29.972300 0.000000 0.000000
									CHANNELS 3 Xrotation Yrotation Zrotation
									JOINT RightHand
									{
										OFFSET -26.026505 0.000000 0.000000
										CHANNELS 3 Xrotation Yrotation Zrotation
										JOINT RightHandThumb1
										{
											OFFSET -12.240601 -7.148026 9.207092
											CHANNELS 3 Xrotation Yrotation Zrotation
											JOINT RightHandThumb2
											{
												OFFSET -4.138618 -2.389435 2.389433
												CHANNELS 3 Xrotation Yrotation Zrotation
												JOINT RightHandThumb3
												{
													OFFSET -2.726974 -1.574417 1.574421
													CHANNELS 3 Xrotation Yrotation Zrotation
													JOINT RightHandThumb4
													{
														OFFSET -3.941010 -2.275345 2.275343
														CHANNELS 3 Xrotation Yrotation Zrotation
														End Site
														{
															OFFSET 0.000000 0.000000 0.000000
														}
													}
												}
											}
										}
										JOINT RightHandIndex1
										{
											OFFSET -24.424698 -1.985657 5.953444
											CHANNELS 3 Xrotation Yrotation Zrotation
											JOINT RightHandIndex2
											{
												OFFSET -6.426697 0.000000 0.000000
												CHANNELS 3 Xrotation Yrotation Zrotation
												JOINT RightHandIndex3
												{
													OFFSET -5.337898 0.000000 0.000000
													CHANNELS 3 Xrotation Yrotation Zrotation
													JOINT RightHandIndex4
													{
														OFFSET -4.409401 0.000000 0.000000
														CHANNELS 3 Xrotation Yrotation Zrotation
														End Site
														{
															OFFSET 0.000000 0.000000 0.000000
														}
													}
												}
											}
										}
										JOINT RightHandMiddle1
										{
											OFFSET -23.810097 0.000000 0.000000
											CHANNELS 3 Xrotation Yrotation Zrotation
											JOINT RightHandMiddle2
											{
												OFFSET -7.176498 0.000000 0.000000
												CHANNELS 3 Xrotation Yrotation Zrotation
												JOINT RightHandMiddle3
												{
													OFFSET -6.774902 0.000000 0.000000
													CHANNELS 3 Xrotation Yrotation Zrotation
													JOINT RightHandMiddle4
													{
														OFFSET -5.403328 0.000000 0.000000
														CHANNELS 3 Xrotation Yrotation Zrotation
														End Site
														{
															OFFSET 0.000000 0.000000 0.000000
														}
													}
												}
											}
										}
										JOINT RightHandRing1
										{
											OFFSET -22.908302 -0.839325 -6.020576
											CHANNELS 3 Xrotation Yrotation Zrotation
											JOINT RightHandRing2
											{
												OFFSET -6.337502 0.000000 0.000000
												CHANNELS 3 Xrotation Yrotation Zrotation
												JOINT RightHandRing3
												{
													OFFSET -5.779297 0.000000 0.000000
													CHANNELS 3 Xrotation Yrotation Zrotation
													JOINT RightHandRing4
													{
														OFFSET -4.965698 0.000000 0.000000
														CHANNELS 3 Xrotation Yrotation Zrotation
														End Site
														{
															OFFSET 0.000000 0.000000 0.000000
														}
													}
												}
											}
										}
										JOINT RightHandPinky1
										{
											OFFSET -20.037003 -1.530334 -10.950259
											CHANNELS 3 Xrotation Yrotation Zrotation
											JOINT RightHandPinky2
											{
												OFFSET -5.254700 0.000000 0.000000
												CHANNELS 3 Xrotation Yrotation Zrotation
												JOINT RightHandPinky3
												{
													OFFSET -4.810204 0.000000 0.000000
													CHANNELS 3 Xrotation Yrotation Zrotation
													JOINT RightHandPinky4
													{
														OFFSET -3.647202 0.000000 0.000000
														CHANNELS 3 Xrotation Yrotation Zrotation
														End Site
														{
															OFFSET 0.000000 0.000000 0.000000
														}
													}
												}
											}
										}
									}
								}
							}
						}
					}
				}
			}
		}
	}
	JOINT LeftUpLeg
	{
		OFFSET 15.427100 -6.655098 0.678600
		CHANNELS 3 Xrotation Yrotation Zrotation
		JOINT LeftLeg
		{
			OFFSET 4.081073 -39.591068 13.024000
			CHANNELS 3 Xrotation Yrotation Zrotation
			JOINT LeftFoot
			{
				OFFSET -4.081074 -37.707932 -15.979700
				CHANNELS 3 Xrotation Yrotation Zrotation
				JOINT LeftToeBase
				{
					OFFSET 5.346399 -15.068900 20.645000
					CHANNELS 3 Xrotation Yrotation Zrotation
					JOINT LeftToe_End
					{
						OFFSET 2.754700 0.931300 11.300900
						CHANNELS 3 Xrotation Yrotation Zrotation
						End Site
						{
							OFFSET 0.000000 0.000000 0.000000
						}
					}
				}
			}
		}
	}
	JOINT RightUpLeg
	{
		OFFSET -15.569500 -6.655098 0.678600
		CHANNELS 3 Xrotation Yrotation Zrotation
		JOINT RightLeg
		{
			OFFSET -4.081825 -39.591045 13.023800
			CHANNELS 3 Xrotation Yrotation Zrotation
			JOINT RightFoot
			{
				OFFSET 4.081824 -37.707954 -15.979600
				CHANNELS 3 Xrotation Yrotation Zrotation
				JOINT RightToeBase
				{
					OFFSET -5.346400 -15.068900 20.645000
					CHANNELS 3 Xrotation Yrotation Zrotation
					JOINT RightToe_End
					{
						OFFSET -2.754700 0.931300 11.300900
						CHANNELS 3 Xrotation Yrotation Zrotation
						End Site
						{
							OFFSET 0.000000 0.000000 0.000000
						}
					}
				}
			}
		}
	}
}
MOTION
Frames: 5
Frame Time: 0.016667
0.461919 97.590202 -1.060207 -4.056296 6.159632 -1.740128 4.903260 -0.348323 1.196686 5.814413 -0.121247 1.891503 0.000000 0.000000 0.000000 -4.300227 -0.608021 -1.115062 1.348862 -1.122448 0.966616 4.180612 -0.441330 -1.260350 -0.000000 0.000000 -0.000000 1.687379 -7.781274 -3.495009 0.000000 0.000000 0.000000 -0.671929 -2.004020 -76.954211 6.346055 -10.905882 1.751775 -0.215900 -0.743849 3.407694 -3.786632 8.458020 12.355388 7.478461 11.594936 -1.281170 1.099779 8.860687 5.173490 -0.000003 0.000001 0.000000 2.378698 3.620431 -6.815227 0.000195 0.249699 -17.103495 0.030313 0.177336 -12.954598 -0.000001 -0.000000 -0.000001 -1.935729 5.644666 -11.386957 0.106898 0.707436 -24.767367 0.016762 0.019714 -9.474776 -0.000001 0.000000 0.000004 -4.873104 10.020051 -7.875463 -0.020636 0.335916 -30.084757 0.121664 0.713923 -12.603106 0.000000 0.000000 0.000001 -6.437481 11.282565 -19.770913 0.037273 0.251333 -30.842156 0.001914 0.134812 -11.459650 -0.000000 -0.000000 0.000002 2.088908 10.213786 4.097141 0.000000 0.000000 0.000000 1.436097 3.709011 75.271786 15.720256 15.338542 -4.555603 -4.674556 -0.553310 -0.689854 -0.464238 -8.992513 -6.084884 7.449379 -11.614427 1.291271 1.128415 -8.847594 -5.184704 -0.000001 -0.000001 0.000002 2.362060 -3.634248 8.333126 0.014207 -0.252981 18.622458 0.018929 -0.182387 14.473406 -0.000002 -0.000001 0.000001 -1.983686 -5.671334 13.530167 0.119630 -0.656145 26.914140 0.016201 -0.036409 11.621525 0.000002 -0.000002 -0.000004 -4.978011 -10.100876 10.695784 -0.012088 -0.340802 32.924046 0.105491 -0.698170 15.440828 0.000001 -0.000000 -0.000002 -6.474135 -11.323130 23.226084 0.055860 -0.250365 34.317835 0.024756 -0.133015 14.920007 -0.000000 -0.000001 0.000002 -2.207206 11.089332 10.021183 9.620490 -6.509546 0.257780 -4.551545 0.531581 -6.417290 -0.000190 -0.000000 0.000010 0.000000 0.000000 -0.000000 -0.557957 -5.933308 1.778731 8.267566 3.359389 -0.592440 -3.466222 0.097554 0.300198 -0.001321 0.000002 0.000001 -0.000000 0.000000 0.000000 
0.462462 97.555016 -1.027712 -4.045482 5.946881 -1.759788 5.236188 -0.321885 1.151267 5.633656 -0.121061 1.918716 0.000000 0.000000 0.000000 -4.352966 -0.591955 -1.049514 1.377147 -1.090218 0.931311 3.936336 -0.412710 -1.296462 -0.000001 0.000000 -0.000000 1.651270 -7.731093 -3.681484 0.000000 0.000000 0.000000 -0.695460 -2.100491 -76.810935 6.241778 -10.917062 1.584194 -0.232982 -0.585454 3.802321 -3.785231 8.454646 12.355332 7.482388 11.596692 -1.286025 1.098171 8.860592 5.176374 0.000000 0.000000 -0.000001 2.379209 3.629042 -6.788377 0.000124 0.249693 -17.091030 0.030246 0.177347 -12.939055 -0.000000 -0.000000 0.000001 -1.939391 5.657828 -11.364483 0.106889 0.707412 -24.761671 0.016712 0.019626 -9.457722 -0.000001 -0.000000 -0.000003 -4.878423 10.039909 -7.848575 -0.020615 0.335913 -30.084746 0.121519 0.713833 -12.587872 0.000000 0.000000 0.000000 -6.440636 11.305765 -19.752719 0.037307 0.251355 -30.842105 0.001879 0.134698 -11.443458 0.000000 0.000000 -0.000003 2.064652 10.089338 4.140846 0.000000 0.000000 0.000000 1.630636 4.074595 75.042114 15.586968 15.435715 -4.453113 -5.016221 -0.489177 -0.883016 -0.464699 -9.050161 -6.077170 7.438708 -11.615228 1.273091 1.122868 -8.803514 -5.159487 0.000000 -0.000002 -0.000000 2.380996 -3.625716 8.514084 0.014269 -0.253016 18.699446 0.019277 -0.182426 14.569564 0.000001 -0.000001 -0.000001 -1.956559 -5.652400 13.660320 0.119710 -0.656250 26.931499 0.016591 -0.036854 11.715591 -0.000003 -0.000001 0.000000 -4.927670 -10.055867 10.840803 -0.012110 -0.340706 32.907739 0.106180 -0.698470 15.512615 -0.000003 0.000000 -0.000000 -6.435791 -11.256293 23.302855 0.055752 -0.250269 34.290230 0.024993 -0.133352 14.990238 0.000001 -0.000002 -0.000001 -2.173758 11.182520 10.092601 9.698381 -6.414569 0.211403 -4.671064 0.547286 -6.431643 -0.049953 -0.042898 0.037203 0.000000 -0.000001 -0.000000 -0.659752 -5.972011 1.790744 8.386131 3.585305 -0.529908 -3.481825 0.120718 0.195860 0.014260 0.002916 0.005301 -0.000000 0.000000 -0.000000 
0.462337 97.512321 -0.991564 -3.951665 5.761192 -1.784773 5.415608 -0.327668 1.163174 5.522215 -0.132479 1.904806 0.000000 0.000000 0.000000 -4.333486 -0.594681 -1.023816 1.247722 -1.042279 0.952613 3.900951 -0.349568 -1.362773 -0.000001 -0.000000 -0.000000 1.620308 -7.552168 -3.860861 0.000000 0.000000 0.000000 -0.751192 -2.300622 -76.607142 6.273863 -11.004187 1.438897 -0.243638 -0.478232 4.018956 -3.781375 8.444597 12.355072 7.491357 11.602865 -1.294921 1.093868 8.860353 5.184087 0.000000 0.000001 0.000000 2.378277 3.651469 -6.736822 0.000122 0.249667 -17.072090 0.030157 0.177334 -12.911858 -0.000002 -0.000000 0.000000 -1.949745 5.684357 -11.316852 0.106863 0.707401 -24.756639 0.016565 0.019417 -9.420229 -0.000000 -0.000001 -0.000001 -4.898107 10.077524 -7.782028 -0.020652 0.335930 -30.084729 0.121203 0.713697 -12.551503 0.000001 -0.000000 -0.000000 -6.457038 11.350207 -19.703784 0.037300 0.251349 -30.842115 0.001765 0.134503 -11.399571 -0.000000 0.000000 -0.000003 1.990164 10.065647 4.383187 0.000000 0.000000 0.000000 2.016828 4.166795 74.641933 15.644914 15.971445 -4.499049 -5.149057 -0.647289 -1.037962 -0.465249 -9.107752 -6.069202 7.427808 -11.616014 1.254582 1.114833 -8.760899 -5.132260 -0.000002 -0.000000 0.000001 2.399821 -3.617036 8.697705 0.014321 -0.253094 18.778314 0.019659 -0.182454 14.667553 0.000002 0.000001 -0.000000 -1.929490 -5.635142 13.790708 0.119802 -0.656296 26.948940 0.016965 -0.037332 11.809874 0.000001 -0.000002 -0.000001 -4.877849 -10.011680 10.983901 -0.012125 -0.340594 32.890052 0.106800 -0.698743 15.583065 0.000004 0.000000 -0.000002 -6.398388 -11.189221 23.375008 0.055650 -0.250145 34.259484 0.025179 -0.133660 15.057591 0.000001 0.000001 0.000003 -2.245425 11.205404 10.148026 9.817208 -6.284583 0.195796 -4.799518 0.567190 -6.465724 -0.090334 -0.067602 0.066302 0.000000 -0.000000 0.000000 -0.876801 -5.962876 1.817883 8.545468 3.813082 -0.506502 -3.493439 0.141219 0.126875 -0.062531 -0.102870 0.024831 0.000000 -0.000000 0.000000 
0.442969 97.455017 -0.955014 -3.895881 5.559210 -1.818011 5.796317 -0.335048 1.090796 5.242577 -0.156767 1.980718 0.000000 0.000000 0.000000 -4.477641 -0.616531 -0.907269 1.569829 -0.951847 0.854656 3.456797 -0.286824 -1.374109 -0.000000 -0.000000 -0.000000 1.575138 -7.497786 -4.111631 0.000000 0.000000 0.000000 -0.649928 -2.291442 -76.423280 6.332386 -11.136890 1.329748 -0.228590 -0.569912 4.292994 -3.777140 8.428112 12.358923 7.504808 11.613068 -1.307469 1.087076 8.859921 5.196224 -0.000003 0.000003 0.000003 2.372269 3.686786 -6.663253 0.000122 0.249630 -17.048063 0.030009 0.177349 -12.874294 -0.000001 0.000000 0.000001 -1.965979 5.722490 -11.247127 0.106862 0.707380 -24.752402 0.016350 0.019129 -9.364709 -0.000001 -0.000001 -0.000003 -4.930796 10.130578 -7.680374 -0.020619 0.335942 -30.088295 0.120686 0.713444 -12.496588 -0.000000 -0.000000 -0.000001 -6.485186 11.413294 -19.627486 0.037290 0.251331 -30.842102 0.001601 0.134202 -11.331508 -0.000000 0.000000 0.000002 1.992627 10.037301 4.259008 0.000000 0.000000 0.000000 2.129316 4.477108 74.585734 15.564225 15.783208 -4.347651 -5.452087 -0.363441 -1.427772 -0.465837 -9.165421 -6.061403 7.416893 -11.616820 1.236008 1.107083 -8.718341 -5.104529 0.000001 -0.000002 -0.000001 2.418917 -3.608133 8.883895 0.014420 -0.253167 18.859049 0.020051 -0.182456 14.767250 -0.000001 0.000000 -0.000003 -1.902495 -5.619329 13.921305 0.119914 -0.656332 26.966560 0.017336 -0.037839 11.904233 -0.000000 -0.000001 0.000000 -4.828695 -9.968009 11.124718 -0.012138 -0.340472 32.871433 0.107485 -0.699010 15.652338 0.000000 -0.000001 -0.000002 -6.362057 -11.121739 23.442857 0.055559 -0.250002 34.225917 0.025344 -0.133945 15.122165 -0.000001 -0.000002 0.000003 -2.306782 11.284591 10.249421 9.970288 -6.204243 0.154644 -4.948098 0.584957 -6.492576 -0.107612 -0.105163 0.078226 -0.000000 0.000001 0.000000 -1.050967 -5.941086 1.847265 8.739922 3.935497 -0.457109 -3.543185 0.155446 0.036781 -0.044274 -0.038573 0.001643 0.000000 0.000000 -0.000000 
0.425264 97.387695 -0.905592 -3.787456 5.345353 -1.869841 5.962088 -0.338889 1.173602 5.138955 -0.169620 1.922761 0.000000 0.000000 0.000000 -4.445559 -0.615046 -0.923940 1.407159 -0.904689 0.903998 3.319785 -0.214768 -1.409141 -0.000000 0.000000 -0.000000 1.548017 -7.340913 -4.191911 0.000000 0.000000 0.000000 -0.740684 -2.457495 -76.268645 6.412171 -11.186915 1.166549 -0.163979 -0.485126 4.490479 -3.771794 8.406424 12.363966 7.522125 11.626602 -1.323199 1.078283 8.859392 5.211947 -0.000000 0.000001 -0.000001 2.364582 3.732836 -6.571202 0.000104 0.249605 -17.019274 0.029827 0.177304 -12.827893 -0.000000 -0.000000 0.000000 -1.987473 5.770529 -11.158504 0.106849 0.707367 -24.750408 0.016075 0.018790 -9.293751 0.000001 -0.000000 -0.000002 -4.975027 10.196555 -7.548287 -0.020603 0.335965 -30.094247 0.120040 0.713120 -12.425722 0.000000 -0.000000 0.000001 -6.524006 11.491982 -19.527424 0.037302 0.251343 -30.842170 0.001370 0.133791 -11.242474 0.000000 -0.000000 -0.000003 1.962681 9.891855 4.427145 0.000000 0.000000 0.000000 2.263375 4.863580 74.267884 15.700832 15.892042 -4.313922 -5.732415 -0.388512 -1.753350 -0.466458 -9.222962 -6.053726 7.406601 -11.617066 1.216448 1.099620 -8.675850 -5.076289 -0.000002 -0.000001 0.000000 2.437862 -3.599065 9.072419 0.014488 -0.253232 18.941187 0.020424 -0.182505 14.868560 0.000001 0.000001 0.000002 -1.875469 -5.604930 14.052011 0.120019 -0.656417 26.984423 0.017741 -0.038292 11.998826 0.000002 -0.000001 -0.000001 -4.780107 -9.924951 11.263696 -0.012150 -0.340339 32.851434 0.108118 -0.699308 15.720406 -0.000000 0.000001 0.000000 -6.326572 -11.053997 23.506892 0.055448 -0.249863 34.189851 0.025511 -0.134211 15.184270 0.000001 -0.000001 0.000004 -2.414706 11.254777 10.341450 10.186589 -5.994880 0.183215 -5.143868 0.620173 -6.583684 -0.157208 -0.241756 0.114430 -0.000000 0.000001 0.000000 -1.299157 -5.932615 1.875213 8.965924 4.086421 -0.373886 -3.588528 0.174186 -0.076560 -0.078997 0.009558 0.002495 0.000000 0.000000 0.000000 
